# xmcd
#
# Track frame offsets:
#	150
#	25032
#	49457
#	64900
#	88850
#	117975
#	143000
#	164125
#	186275
#	202342
#	236800
#	268087
#
# Disc length: 3888 seconds
#
# Revision: 0
# Processed by: cddbd v1.5.2PL0 Copyright (c) Steve Scherf et al.
# Submitted via: EZCDAudioConverter 8.0.2.1
#
DISCID=bf0f2e0c
DTITLE=Various Artist - Xin Làm Người Tình Cô Đơn
DYEAR=1989
DGENRE=Contemporary Pop
TTITLE0=Elvis Phương, Khánh Ly - Tình khúc cho em
TTITLE1=Thanh Tuyền - Biển mặn
TTITLE2=Julie - Đêm huyền diệu
TTITLE3=Lệ Thu - CHo người tình lỡ
TTITLE4=Elvis Phương - Xin Làm Người Tình Cô Đơn
TTITLE5=Ngọc Minh - Sắc hao màu nhớ
TTITLE6=Thanh Tuyền - Tình yêu trả lại trăng sao
TTITLE7=Elvis Phương - Phiên khúc mùa đông
TTITLE8=Khánh Ly - Ánh đèn màu
TTITLE9=Lý Hải - Tình
TTITLE10=Tuấn Ngọc - Tiễn em
TTITLE11=Carol Kim - Nếu một ngày
EXTD=
EXTT0=
EXTT1=
EXTT2=
EXTT3=
EXTT4=
EXTT5=
EXTT6=
EXTT7=
EXTT8=
EXTT9=
EXTT10=
EXTT11=
PLAYORDER=
